<?xml version="1.0" encoding="utf-8"?>
<!-- Generator: Adobe Illustrator 21.0.2, SVG Export Plug-In . SVG Version: 6.00 Build 0)  -->
<svg version="1.1" id="Layer_1" xmlns="http://www.w3.org/2000/svg" xmlns:xlink="http://www.w3.org/1999/xlink" x="0px" y="0px"
	 viewBox="0 0 16 16" style="enable-background:new 0 0 16 16;" xml:space="preserve">
<style type="text/css">
	.st0{fill:#626363;}
	.st1{fill:#FFFFFF;}
</style>
<g id="qWFVdg.tif_2_">
	<g>
		<path class="st0" d="M1.7,12.8c0.3-0.3,0.2-0.6,0-1c-1.8-2.3-1.8-5.3,0-7.6c3-3.7,9.2-3.9,12.4-0.3c2.2,2.6,2.1,6.2-0.3,8.5
			c-2.5,2.4-5.5,2.9-8.8,1.7c-0.7-0.3-1.4-0.5-2.2-0.1c-0.6,0.3-1.4,0.3-2.1,0C1,13.6,1.4,13.2,1.7,12.8z"/>
	</g>
</g>
<g>
	<path class="st1" d="M7.7,10.2c-0.4,0-0.6,0.2-0.6,0.6c0,0.2,0.1,0.4,0.2,0.5c0.1,0.1,0.3,0.2,0.5,0.2c0.2,0,0.4-0.1,0.5-0.2
		c0.1-0.1,0.2-0.3,0.2-0.5c0-0.2-0.1-0.4-0.2-0.5C8.1,10.3,7.9,10.2,7.7,10.2z"/>
	<path class="st1" d="M9.4,5C9.1,4.7,8.6,4.6,8,4.6c-0.7,0-1.4,0.2-2,0.5C5.9,5.1,5.9,5.3,5.9,5.4l0.4,0.7c0,0.1,0.1,0.1,0.1,0.1
		c0.1,0,0.1,0,0.2,0C6.8,6.1,7,6,7.2,6c0.2-0.1,0.4-0.1,0.7-0.1c0.2,0,0.4,0,0.5,0.1c0.1,0.1,0.2,0.2,0.2,0.4c0,0.2,0,0.3-0.1,0.4
		C8.4,6.9,8.3,7,7.9,7.4C7.6,7.6,7.4,7.8,7.2,8.1C7.1,8.3,7,8.6,7,8.9v0.3c0,0.1,0.1,0.2,0.2,0.2h0.8c0.1,0,0.2-0.1,0.2-0.2V9
		c0-0.2,0-0.3,0.1-0.4c0.1-0.1,0.2-0.2,0.5-0.5c0.3-0.3,0.6-0.5,0.7-0.6C9.7,7.4,9.8,7.2,9.9,7C10,6.8,10,6.6,10,6.3
		C10,5.8,9.8,5.4,9.4,5z"/>
</g>
</svg>
